<svg width="240" height="51" viewBox="0 0 240 51" fill="none" xmlns="http://www.w3.org/2000/svg">
<path d="M38.8203 38.5687L52.6274 13.5977H64.4938L69.4843 38.5687H61.1852L60.3535 33.0237H49.9658L47.1378 38.5687H38.8203ZM52.6829 27.9038H59.5033L57.9506 17.9967H57.8213L52.6829 27.9038Z" fill="#040404"/>
<path d="M72.3281 38.5678L76.7272 13.6152H89.5547L96.449 32.5977L99.8314 13.6152H107.853L103.454 38.5678H90.8115L83.7878 18.8645L80.3314 38.5678H72.3281Z" fill="#040404"/>
<path d="M108.781 38.5678L113.199 13.6152H121.165L116.766 38.5678H108.781Z" fill="#040404"/>
<path d="M122.141 38.568L126.54 13.6154H134.58L131.087 33.2632H143.323L142.398 38.568H122.141ZM145.799 38.568L150.198 13.6154H172.933L171.99 18.9386H157.277L156.482 23.4855H170.012L169.125 28.513H155.595L154.763 33.2447H169.476L168.534 38.568H145.799ZM181.157 38.568L184.614 18.9386H175.557L176.481 13.6154H202.635L201.692 18.9386H192.654L189.198 38.568H181.157ZM215.13 38.7158C210.127 38.7158 206.686 37.9274 204.807 36.35C202.928 34.7728 202.241 32.5487 202.746 29.6774H210.786C210.515 31.3164 210.903 32.3515 211.951 32.7827C212.998 33.2141 214.347 33.4296 215.999 33.4296C217.637 33.4296 219.054 33.2632 220.25 32.9305C221.445 32.5978 222.098 32.0557 222.209 31.304C222.357 30.4662 221.657 29.9024 220.111 29.6127C218.565 29.3234 216.547 29.006 214.058 28.6609C209.942 28.0448 207.238 27.1608 205.944 26.0085C204.65 24.8564 204.071 23.3561 204.206 21.5078C204.305 19.0804 205.663 17.1211 208.282 15.63C210.9 14.1392 214.606 13.3936 219.4 13.3936C224.205 13.3936 227.563 14.1976 229.473 15.8056C231.383 17.4137 232.104 19.5979 231.636 22.358H223.595C223.866 20.7563 223.463 19.7582 222.385 19.3637C221.306 18.9695 219.991 18.7722 218.438 18.7722C216.738 18.7722 215.275 18.9233 214.049 19.2251C212.822 19.5272 212.154 20.0355 212.043 20.75C211.895 21.6372 212.558 22.2257 214.03 22.5151C215.503 22.8048 217.545 23.1467 220.157 23.5409C224.495 24.2064 227.313 25.0136 228.614 25.9623C229.913 26.9113 230.453 28.3836 230.231 30.3798C229.984 32.9305 228.614 34.9576 226.118 36.4609C223.623 37.9644 219.96 38.7158 215.13 38.7158Z" fill="url(#paint0_linear_2383_6597)"/>
<path d="M38.8488 16.553C37.1547 14.5924 34.1132 13.6152 29.7352 13.6152H11.4838L7.08594 38.5678H14.753L18.4462 33.1651L15.1276 33.1526L18.0941 19.566L29.2532 19.6099C31.8176 19.6193 33.77 21.6206 33.304 23.7629L32.331 28.2103C31.9704 29.864 31.1665 31.4175 29.9799 32.7549L24.8186 38.5678H25.8635C30.2599 38.5678 33.6385 37.6063 36.0067 35.6833C38.3712 33.7634 39.8631 30.5593 40.475 26.0712C41.0886 21.6864 40.5465 18.5105 38.8488 16.553Z" fill="#040404"/>
<path d="M30.5552 24.3926C30.5649 24.4924 30.5599 24.5924 30.547 24.6916C30.4763 25.2328 30.1817 27.2305 29.503 28.84C29.4812 28.8954 29.4583 28.95 29.4354 29.0036C29.0439 29.9416 28.5454 30.8445 27.9472 31.6994C27.6095 32.1818 27.2389 32.6485 26.842 33.0995L22.7159 37.7472L17.9922 37.7278L21.5345 32.5413L22.4635 31.1828L18.4118 31.1671H18.0557L19.5134 24.4955L19.9029 22.7137L20.1507 21.5732L27.0315 21.5982C28.9195 21.6065 30.4205 22.8708 30.555 24.391C30.5551 24.3916 30.5552 24.3921 30.5552 24.3926Z" fill="url(#paint1_linear_2383_6597)"/>
<defs>
<linearGradient id="paint0_linear_2383_6597" x1="159.49" y1="-10.3302" x2="188.353" y2="54.561" gradientUnits="userSpaceOnUse">
<stop stop-color="#4B8B34"/>
<stop offset="0.144212" stop-color="#68A84E"/>
<stop offset="0.461392" stop-color="#A8F292"/>
<stop offset="0.511236" stop-color="#ADFF9E"/>
<stop offset="0.666053" stop-color="#9DE17B"/>
<stop offset="1" stop-color="#3EA533"/>
</linearGradient>
<linearGradient id="paint1_linear_2383_6597" x1="19.2454" y1="19.5833" x2="26.679" y2="36.2965" gradientUnits="userSpaceOnUse">
<stop stop-color="#628B34"/>
<stop offset="0.144212" stop-color="#75A84E"/>
<stop offset="0.461392" stop-color="#BCF292"/>
<stop offset="0.511236" stop-color="#C0FF9E"/>
<stop offset="0.666053" stop-color="#A2E17B"/>
<stop offset="1" stop-color="#5DA533"/>
</linearGradient>
</defs>
</svg>
